{
	"asset":{
		"generator":"Khronos glTF Blender I/O v3.5.30",
		"version":"2.0"
	},
	"extensionsUsed":[
		"KHR_materials_specular",
		"KHR_materials_ior"
	],
	"scene":0,
	"scenes":[
		{
			"name":"Scene",
			"nodes":[
				0
			]
		}
	],
	"nodes":[
		{
			"mesh":0,
			"name":"short door",
			"rotation":[
				0.70710688829422,
				0,
				0,
				0.7071066498756409
			]
		}
	],
	"materials":[
		{
			"doubleSided":true,
			"extensions":{
				"KHR_materials_specular":{
					"specularColorFactor":[
						0.7825480438613257,
						0.7825480438613257,
						0.7825480438613257
					]
				},
				"KHR_materials_ior":{
					"ior":1.4500000476837158
				}
			},
			"name":"White1",
			"pbrMetallicRoughness":{
				"metallicFactor":0
			}
		},
		{
			"doubleSided":true,
			"extensions":{
				"KHR_materials_specular":{
					"specularColorFactor":[
						0.7825480438613255,
						0.7825480438613255,
						0.7825480438613255
					]
				},
				"KHR_materials_ior":{
					"ior":1.4500000476837158
				}
			},
			"name":"_31",
			"pbrMetallicRoughness":{
				"baseColorFactor":[
					1,
					0,
					0,
					1
				],
				"metallicFactor":0
			}
		},
		{
			"doubleSided":true,
			"extensions":{
				"KHR_materials_specular":{
					"specularColorFactor":[
						0.7825480438613255,
						0.7825480438613255,
						0.7825480438613255
					]
				},
				"KHR_materials_ior":{
					"ior":1.4500000476837158
				}
			},
			"name":"M_0135_DarkGray",
			"pbrMetallicRoughness":{
				"baseColorFactor":[
					0.3176470100879669,
					0.3176470100879669,
					0.3176470100879669,
					1
				],
				"metallicFactor":0
			}
		},
		{
			"doubleSided":true,
			"extensions":{
				"KHR_materials_specular":{
					"specularColorFactor":[
						0.7825480438613261,
						0.7825480438613257,
						0.7825480438613228
					]
				},
				"KHR_materials_ior":{
					"ior":1.4500000476837158
				}
			},
			"name":"RAL9002_Paneel",
			"pbrMetallicRoughness":{
				"baseColorFactor":[
					0.8431370258331299,
					0.8352940082550049,
					0.7960780262947083,
					1
				],
				"metallicFactor":0
			}
		},
		{
			"doubleSided":true,
			"extensions":{
				"KHR_materials_specular":{
					"specularColorFactor":[
						0.7825480438613255,
						0.7825480438613255,
						0.7825480438613255
					]
				},
				"KHR_materials_ior":{
					"ior":1.4500000476837158
				}
			},
			"name":"Color_M08",
			"pbrMetallicRoughness":{
				"baseColorFactor":[
					0.11764699965715408,
					0.11764699965715408,
					0.11764699965715408,
					1
				],
				"metallicFactor":0
			}
		},
		{
			"doubleSided":true,
			"extensions":{
				"KHR_materials_specular":{
					"specularColorFactor":[
						0.7825480438613257,
						0.7825480438613257,
						0.7825480438613257
					]
				},
				"KHR_materials_ior":{
					"ior":1.4500000476837158
				}
			},
			"name":"FrontColor",
			"pbrMetallicRoughness":{
				"metallicFactor":0
			}
		}
	],
	"meshes":[
		{
			"name":"short door",
			"primitives":[
				{
					"attributes":{
						"POSITION":0,
						"TEXCOORD_0":1,
						"NORMAL":2
					},
					"indices":3,
					"material":0
				},
				{
					"attributes":{
						"POSITION":4,
						"TEXCOORD_0":5,
						"NORMAL":6
					},
					"indices":7,
					"material":1
				},
				{
					"attributes":{
						"POSITION":8,
						"TEXCOORD_0":9,
						"NORMAL":10
					},
					"indices":11,
					"material":2
				},
				{
					"attributes":{
						"POSITION":12,
						"TEXCOORD_0":13,
						"NORMAL":14
					},
					"indices":15,
					"material":3
				},
				{
					"attributes":{
						"POSITION":16,
						"TEXCOORD_0":17,
						"NORMAL":18
					},
					"indices":19,
					"material":4
				},
				{
					"attributes":{
						"POSITION":20,
						"TEXCOORD_0":21,
						"NORMAL":22
					},
					"indices":23,
					"material":5
				}
			]
		}
	],
	"accessors":[
		{
			"bufferView":0,
			"componentType":5126,
			"count":681,
			"max":[
				64.42630004882812,
				-5.357019901275635,
				-108.0999984741211
			],
			"min":[
				59.64039993286133,
				-9.893019676208496,
				-126.81900024414062
			],
			"type":"VEC3"
		},
		{
			"bufferView":1,
			"componentType":5126,
			"count":681,
			"type":"VEC2"
		},
		{
			"bufferView":2,
			"componentType":5126,
			"count":681,
			"type":"VEC3"
		},
		{
			"bufferView":3,
			"componentType":5123,
			"count":1380,
			"type":"SCALAR"
		},
		{
			"bufferView":4,
			"componentType":5126,
			"count":514,
			"max":[
				74.42669677734375,
				0.04292890056967735,
				-119.51399993896484
			],
			"min":[
				60.7515983581543,
				-15.293000221252441,
				-125.23300170898438
			],
			"type":"VEC3"
		},
		{
			"bufferView":5,
			"componentType":5126,
			"count":514,
			"type":"VEC2"
		},
		{
			"bufferView":6,
			"componentType":5126,
			"count":514,
			"type":"VEC3"
		},
		{
			"bufferView":7,
			"componentType":5123,
			"count":840,
			"type":"SCALAR"
		},
		{
			"bufferView":8,
			"componentType":5126,
			"count":653,
			"max":[
				146.0469970703125,
				-2.3405699729919434,
				-13.983699798583984
			],
			"min":[
				52.758399963378906,
				-11.048199653625488,
				-235.98399353027344
			],
			"type":"VEC3"
		},
		{
			"bufferView":9,
			"componentType":5126,
			"count":653,
			"type":"VEC2"
		},
		{
			"bufferView":10,
			"componentType":5126,
			"count":653,
			"type":"VEC3"
		},
		{
			"bufferView":11,
			"componentType":5123,
			"count":1116,
			"type":"SCALAR"
		},
		{
			"bufferView":12,
			"componentType":5126,
			"count":18542,
			"max":[
				199.56199645996094,
				-4.374370098114014,
				-13.983699798583984
			],
			"min":[
				1.5150099992752075,
				-8.83887004852295,
				-243.08399963378906
			],
			"type":"VEC3"
		},
		{
			"bufferView":13,
			"componentType":5126,
			"count":18542,
			"type":"VEC2"
		},
		{
			"bufferView":14,
			"componentType":5126,
			"count":18542,
			"type":"VEC3"
		},
		{
			"bufferView":15,
			"componentType":5123,
			"count":33279,
			"type":"SCALAR"
		},
		{
			"bufferView":16,
			"componentType":5126,
			"count":10,
			"max":[
				66.65070343017578,
				-6.4370198249816895,
				-13.983699798583984
			],
			"min":[
				58.0161018371582,
				-8.813019752502441,
				-230.6840057373047
			],
			"type":"VEC3"
		},
		{
			"bufferView":17,
			"componentType":5126,
			"count":10,
			"type":"VEC2"
		},
		{
			"bufferView":18,
			"componentType":5126,
			"count":10,
			"type":"VEC3"
		},
		{
			"bufferView":19,
			"componentType":5123,
			"count":18,
			"type":"SCALAR"
		},
		{
			"bufferView":20,
			"componentType":5126,
			"count":17,
			"max":[
				145.61199951171875,
				-4.72353982925415,
				-13.983699798583984
			],
			"min":[
				56.323001861572266,
				-8.489760398864746,
				-233.98399353027344
			],
			"type":"VEC3"
		},
		{
			"bufferView":21,
			"componentType":5126,
			"count":17,
			"type":"VEC2"
		},
		{
			"bufferView":22,
			"componentType":5126,
			"count":17,
			"type":"VEC3"
		},
		{
			"bufferView":23,
			"componentType":5123,
			"count":21,
			"type":"SCALAR"
		}
	],
	"bufferViews":[
		{
			"buffer":0,
			"byteLength":8172,
			"byteOffset":0,
			"target":34962
		},
		{
			"buffer":0,
			"byteLength":5448,
			"byteOffset":8172,
			"target":34962
		},
		{
			"buffer":0,
			"byteLength":8172,
			"byteOffset":13620,
			"target":34962
		},
		{
			"buffer":0,
			"byteLength":2760,
			"byteOffset":21792,
			"target":34963
		},
		{
			"buffer":0,
			"byteLength":6168,
			"byteOffset":24552,
			"target":34962
		},
		{
			"buffer":0,
			"byteLength":4112,
			"byteOffset":30720,
			"target":34962
		},
		{
			"buffer":0,
			"byteLength":6168,
			"byteOffset":34832,
			"target":34962
		},
		{
			"buffer":0,
			"byteLength":1680,
			"byteOffset":41000,
			"target":34963
		},
		{
			"buffer":0,
			"byteLength":7836,
			"byteOffset":42680,
			"target":34962
		},
		{
			"buffer":0,
			"byteLength":5224,
			"byteOffset":50516,
			"target":34962
		},
		{
			"buffer":0,
			"byteLength":7836,
			"byteOffset":55740,
			"target":34962
		},
		{
			"buffer":0,
			"byteLength":2232,
			"byteOffset":63576,
			"target":34963
		},
		{
			"buffer":0,
			"byteLength":222504,
			"byteOffset":65808,
			"target":34962
		},
		{
			"buffer":0,
			"byteLength":148336,
			"byteOffset":288312,
			"target":34962
		},
		{
			"buffer":0,
			"byteLength":222504,
			"byteOffset":436648,
			"target":34962
		},
		{
			"buffer":0,
			"byteLength":66558,
			"byteOffset":659152,
			"target":34963
		},
		{
			"buffer":0,
			"byteLength":120,
			"byteOffset":725712,
			"target":34962
		},
		{
			"buffer":0,
			"byteLength":80,
			"byteOffset":725832,
			"target":34962
		},
		{
			"buffer":0,
			"byteLength":120,
			"byteOffset":725912,
			"target":34962
		},
		{
			"buffer":0,
			"byteLength":36,
			"byteOffset":726032,
			"target":34963
		},
		{
			"buffer":0,
			"byteLength":204,
			"byteOffset":726068,
			"target":34962
		},
		{
			"buffer":0,
			"byteLength":136,
			"byteOffset":726272,
			"target":34962
		},
		{
			"buffer":0,
			"byteLength":204,
			"byteOffset":726408,
			"target":34962
		},
		{
			"buffer":0,
			"byteLength":42,
			"byteOffset":726612,
			"target":34963
		}
	],
	"buffers":[
		{
			"byteLength":726656,
			"uri":"data:application/octet-stream;base64,"
		}
	]
}
