{
	"asset":{
		"generator":"Khronos glTF Blender I/O v3.5.30",
		"version":"2.0"
	},
	"extensionsUsed":[
		"KHR_materials_specular",
		"KHR_materials_ior"
	],
	"scene":0,
	"scenes":[
		{
			"name":"Scene",
			"nodes":[
				0
			]
		}
	],
	"nodes":[
		{
			"mesh":0,
			"name":"kasa",
			"rotation":[
				0.70710688829422,
				0,
				0,
				0.7071066498756409
			]
		}
	],
	"materials":[
		{
			"doubleSided":true,
			"extensions":{
				"KHR_materials_specular":{
					"specularColorTexture":{
						"index":0
					}
				},
				"KHR_materials_ior":{
					"ior":1.4500000476837158
				}
			},
			"name":"Wood_Lumber_ButtJoined",
			"pbrMetallicRoughness":{
				"baseColorTexture":{
					"index":1
				},
				"metallicFactor":0
			}
		},
		{
			"doubleSided":true,
			"extensions":{
				"KHR_materials_specular":{
					"specularColorTexture":{
						"index":2
					}
				},
				"KHR_materials_ior":{
					"ior":1.4500000476837158
				}
			},
			"name":"Wood_OSB",
			"pbrMetallicRoughness":{
				"baseColorTexture":{
					"index":3
				},
				"metallicFactor":0
			}
		},
		{
			"doubleSided":true,
			"extensions":{
				"KHR_materials_specular":{
					"specularColorTexture":{
						"index":4
					}
				},
				"KHR_materials_ior":{
					"ior":1.4500000476837158
				}
			},
			"name":"Wood_Floor_Dark",
			"pbrMetallicRoughness":{
				"baseColorTexture":{
					"index":5
				},
				"metallicFactor":0
			}
		},
		{
			"doubleSided":true,
			"extensions":{
				"KHR_materials_specular":{
					"specularColorFactor":[
						0.7825480438613257,
						0.7825480438613257,
						0.7825480438613257
					]
				},
				"KHR_materials_ior":{
					"ior":1.4500000476837158
				}
			},
			"name":"FrontColor",
			"pbrMetallicRoughness":{
				"metallicFactor":0
			}
		},
		{
			"doubleSided":true,
			"extensions":{
				"KHR_materials_specular":{
					"specularColorFactor":[
						0.7825480438613255,
						0.7825480438613255,
						0.7825480438613255
					]
				},
				"KHR_materials_ior":{
					"ior":1.4500000476837158
				}
			},
			"name":"M_0135_DarkGray",
			"pbrMetallicRoughness":{
				"baseColorFactor":[
					0.3176470100879669,
					0.3176470100879669,
					0.3176470100879669,
					1
				],
				"metallicFactor":0
			}
		},
		{
			"doubleSided":true,
			"extensions":{
				"KHR_materials_specular":{
					"specularColorTexture":{
						"index":6
					}
				},
				"KHR_materials_ior":{
					"ior":1.4500000476837158
				}
			},
			"name":"_Metal_Aluminum_Anodized_1",
			"pbrMetallicRoughness":{
				"baseColorTexture":{
					"index":7
				},
				"metallicFactor":0
			}
		}
	],
	"meshes":[
		{
			"name":"kasa",
			"primitives":[
				{
					"attributes":{
						"POSITION":0,
						"TEXCOORD_0":1,
						"NORMAL":2
					},
					"indices":3,
					"material":0
				},
				{
					"attributes":{
						"POSITION":4,
						"TEXCOORD_0":5,
						"NORMAL":6
					},
					"indices":7,
					"material":1
				},
				{
					"attributes":{
						"POSITION":8,
						"TEXCOORD_0":9,
						"NORMAL":10
					},
					"indices":11,
					"material":2
				},
				{
					"attributes":{
						"POSITION":12,
						"TEXCOORD_0":13,
						"NORMAL":14
					},
					"indices":15,
					"material":3
				},
				{
					"attributes":{
						"POSITION":16,
						"TEXCOORD_0":17,
						"NORMAL":18
					},
					"indices":19,
					"material":4
				},
				{
					"attributes":{
						"POSITION":20,
						"TEXCOORD_0":21,
						"NORMAL":22
					},
					"indices":23,
					"material":5
				}
			]
		}
	],
	"textures":[
		{
			"sampler":0,
			"source":0
		},
		{
			"sampler":0,
			"source":1
		},
		{
			"sampler":0,
			"source":2
		},
		{
			"sampler":0,
			"source":3
		},
		{
			"sampler":0,
			"source":4
		},
		{
			"sampler":0,
			"source":5
		},
		{
			"sampler":0,
			"source":4
		},
		{
			"sampler":0,
			"source":6
		}
	],
	"images":[
		{
			"bufferView":4,
			"mimeType":"image/png",
			"name":"Image"
		},
		{
			"bufferView":5,
			"mimeType":"image/jpeg",
			"name":"Wood_Lumber_ButtJoined"
		},
		{
			"bufferView":10,
			"mimeType":"image/png",
			"name":"Image"
		},
		{
			"bufferView":11,
			"mimeType":"image/jpeg",
			"name":"Wood_OSB"
		},
		{
			"bufferView":16,
			"mimeType":"image/png",
			"name":"Image"
		},
		{
			"bufferView":17,
			"mimeType":"image/jpeg",
			"name":"Wood_Floor_Dark"
		},
		{
			"bufferView":30,
			"mimeType":"image/jpeg",
			"name":"_Metal_Aluminum_Anodized_1"
		}
	],
	"accessors":[
		{
			"bufferView":0,
			"componentType":5126,
			"count":114,
			"max":[
				192.51699829101562,
				-8.206500053405762,
				-9.5
			],
			"min":[
				7.179590225219727,
				-232.16799926757812,
				-10.800000190734863
			],
			"type":"VEC3"
		},
		{
			"bufferView":1,
			"componentType":5126,
			"count":114,
			"type":"VEC2"
		},
		{
			"bufferView":2,
			"componentType":5126,
			"count":114,
			"type":"VEC3"
		},
		{
			"bufferView":3,
			"componentType":5123,
			"count":186,
			"type":"SCALAR"
		},
		{
			"bufferView":6,
			"componentType":5126,
			"count":65,
			"max":[
				192.51699829101562,
				-8.206500053405762,
				-9.5
			],
			"min":[
				7.179590225219727,
				-232.16799926757812,
				-10.5
			],
			"type":"VEC3"
		},
		{
			"bufferView":7,
			"componentType":5126,
			"count":65,
			"type":"VEC2"
		},
		{
			"bufferView":8,
			"componentType":5126,
			"count":65,
			"type":"VEC3"
		},
		{
			"bufferView":9,
			"componentType":5123,
			"count":93,
			"type":"SCALAR"
		},
		{
			"bufferView":12,
			"componentType":5126,
			"count":20,
			"max":[
				192.51699829101562,
				-8.206500053405762,
				-10.800000190734863
			],
			"min":[
				7.179590225219727,
				-232.16799926757812,
				-10.800000190734863
			],
			"type":"VEC3"
		},
		{
			"bufferView":13,
			"componentType":5126,
			"count":20,
			"type":"VEC2"
		},
		{
			"bufferView":14,
			"componentType":5126,
			"count":20,
			"type":"VEC3"
		},
		{
			"bufferView":15,
			"componentType":5123,
			"count":30,
			"type":"SCALAR"
		},
		{
			"bufferView":18,
			"componentType":5126,
			"count":11155,
			"max":[
				190.70599365234375,
				0.13050000369548798,
				-9.5
			],
			"min":[
				6.199999809265137,
				-240,
				-249
			],
			"type":"VEC3"
		},
		{
			"bufferView":19,
			"componentType":5126,
			"count":11155,
			"type":"VEC2"
		},
		{
			"bufferView":20,
			"componentType":5126,
			"count":11155,
			"type":"VEC3"
		},
		{
			"bufferView":21,
			"componentType":5123,
			"count":20487,
			"type":"SCALAR"
		},
		{
			"bufferView":22,
			"componentType":5126,
			"count":9882,
			"max":[
				200.052001953125,
				0.052225999534130096,
				0
			],
			"min":[
				-0.052225999534130096,
				-240.052001953125,
				-249
			],
			"type":"VEC3"
		},
		{
			"bufferView":23,
			"componentType":5126,
			"count":9882,
			"type":"VEC2"
		},
		{
			"bufferView":24,
			"componentType":5126,
			"count":9882,
			"type":"VEC3"
		},
		{
			"bufferView":25,
			"componentType":5123,
			"count":17361,
			"type":"SCALAR"
		},
		{
			"bufferView":26,
			"componentType":5126,
			"count":2206,
			"max":[
				199.5970001220703,
				0.13050000369548798,
				-241.05999755859375
			],
			"min":[
				1,
				-235,
				-247.625
			],
			"type":"VEC3"
		},
		{
			"bufferView":27,
			"componentType":5126,
			"count":2206,
			"type":"VEC2"
		},
		{
			"bufferView":28,
			"componentType":5126,
			"count":2206,
			"type":"VEC3"
		},
		{
			"bufferView":29,
			"componentType":5123,
			"count":3354,
			"type":"SCALAR"
		}
	],
	"bufferViews":[
		{
			"buffer":0,
			"byteLength":1368,
			"byteOffset":0,
			"target":34962
		},
		{
			"buffer":0,
			"byteLength":912,
			"byteOffset":1368,
			"target":34962
		},
		{
			"buffer":0,
			"byteLength":1368,
			"byteOffset":2280,
			"target":34962
		},
		{
			"buffer":0,
			"byteLength":372,
			"byteOffset":3648,
			"target":34963
		},
		{
			"buffer":0,
			"byteLength":2269,
			"byteOffset":4020
		},
		{
			"buffer":0,
			"byteLength":9037,
			"byteOffset":6292
		},
		{
			"buffer":0,
			"byteLength":780,
			"byteOffset":15332,
			"target":34962
		},
		{
			"buffer":0,
			"byteLength":520,
			"byteOffset":16112,
			"target":34962
		},
		{
			"buffer":0,
			"byteLength":780,
			"byteOffset":16632,
			"target":34962
		},
		{
			"buffer":0,
			"byteLength":186,
			"byteOffset":17412,
			"target":34963
		},
		{
			"buffer":0,
			"byteLength":2184,
			"byteOffset":17600
		},
		{
			"buffer":0,
			"byteLength":11009,
			"byteOffset":19784
		},
		{
			"buffer":0,
			"byteLength":240,
			"byteOffset":30796,
			"target":34962
		},
		{
			"buffer":0,
			"byteLength":160,
			"byteOffset":31036,
			"target":34962
		},
		{
			"buffer":0,
			"byteLength":240,
			"byteOffset":31196,
			"target":34962
		},
		{
			"buffer":0,
			"byteLength":60,
			"byteOffset":31436,
			"target":34963
		},
		{
			"buffer":0,
			"byteLength":1340,
			"byteOffset":31496
		},
		{
			"buffer":0,
			"byteLength":11285,
			"byteOffset":32836
		},
		{
			"buffer":0,
			"byteLength":133860,
			"byteOffset":44124,
			"target":34962
		},
		{
			"buffer":0,
			"byteLength":89240,
			"byteOffset":177984,
			"target":34962
		},
		{
			"buffer":0,
			"byteLength":133860,
			"byteOffset":267224,
			"target":34962
		},
		{
			"buffer":0,
			"byteLength":40974,
			"byteOffset":401084,
			"target":34963
		},
		{
			"buffer":0,
			"byteLength":118584,
			"byteOffset":442060,
			"target":34962
		},
		{
			"buffer":0,
			"byteLength":79056,
			"byteOffset":560644,
			"target":34962
		},
		{
			"buffer":0,
			"byteLength":118584,
			"byteOffset":639700,
			"target":34962
		},
		{
			"buffer":0,
			"byteLength":34722,
			"byteOffset":758284,
			"target":34963
		},
		{
			"buffer":0,
			"byteLength":26472,
			"byteOffset":793008,
			"target":34962
		},
		{
			"buffer":0,
			"byteLength":17648,
			"byteOffset":819480,
			"target":34962
		},
		{
			"buffer":0,
			"byteLength":26472,
			"byteOffset":837128,
			"target":34962
		},
		{
			"buffer":0,
			"byteLength":6708,
			"byteOffset":863600,
			"target":34963
		},
		{
			"buffer":0,
			"byteLength":4461,
			"byteOffset":870308
		}
	],
	"samplers":[
		{
			"magFilter":9729,
			"minFilter":9987
		}
	],
	"buffers":[
		{
			"byteLength":874772,
			"uri":"data:application/octet-stream;base64,"
		}
	]
}
