{
	"asset":{
		"generator":"Khronos glTF Blender I/O v3.5.30",
		"version":"2.0"
	},
	"extensionsUsed":[
		"KHR_materials_specular",
		"KHR_materials_ior"
	],
	"scene":0,
	"scenes":[
		{
			"name":"Scene",
			"nodes":[
				0
			]
		}
	],
	"nodes":[
		{
			"mesh":0,
			"name":"long wall",
			"rotation":[
				0.7071068286895752,
				0,
				0,
				0.7071068286895752
			]
		}
	],
	"materials":[
		{
			"doubleSided":true,
			"extensions":{
				"KHR_materials_specular":{
					"specularColorFactor":[
						0.7825480438613255,
						0.7825480438613255,
						0.7825480438613255
					]
				},
				"KHR_materials_ior":{
					"ior":1.4500000476837158
				}
			},
			"name":"RAL9002_Paneel",
			"pbrMetallicRoughness":{
				"baseColorFactor":[
					0.8431370258331299,
					0.8352940082550049,
					0.7960780262947083,
					1
				],
				"metallicFactor":0
			}
		}
	],
	"meshes":[
		{
			"name":"long wall",
			"primitives":[
				{
					"attributes":{
						"POSITION":0,
						"TEXCOORD_0":1,
						"NORMAL":2
					},
					"indices":3,
					"material":0
				}
			]
		}
	],
	"accessors":[
		{
			"bufferView":0,
			"componentType":5126,
			"count":22832,
			"max":[
				4.466310024261475,
				14.234700202941895,
				-5.029329776763916
			],
			"min":[
				0.3583639860153198,
				-223.77999877929688,
				-234.572998046875
			],
			"type":"VEC3"
		},
		{
			"bufferView":1,
			"componentType":5126,
			"count":22832,
			"type":"VEC2"
		},
		{
			"bufferView":2,
			"componentType":5126,
			"count":22832,
			"type":"VEC3"
		},
		{
			"bufferView":3,
			"componentType":5123,
			"count":45672,
			"type":"SCALAR"
		}
	],
	"bufferViews":[
		{
			"buffer":0,
			"byteLength":273984,
			"byteOffset":0,
			"target":34962
		},
		{
			"buffer":0,
			"byteLength":182656,
			"byteOffset":273984,
			"target":34962
		},
		{
			"buffer":0,
			"byteLength":273984,
			"byteOffset":456640,
			"target":34962
		},
		{
			"buffer":0,
			"byteLength":91344,
			"byteOffset":730624,
			"target":34963
		}
	],
	"buffers":[
		{
			"byteLength":821968,
			"uri":"data:application/octet-stream;base64,"
		}
	]
}
