{
	"asset":{
		"generator":"Khronos glTF Blender I/O v3.5.30",
		"version":"2.0"
	},
	"extensionsUsed":[
		"KHR_materials_specular",
		"KHR_materials_ior"
	],
	"scene":0,
	"scenes":[
		{
			"name":"Scene",
			"nodes":[
				0
			]
		}
	],
	"nodes":[
		{
			"mesh":0,
			"name":"short pencere",
			"rotation":[
				0.7071068286895752,
				0,
				0,
				0.7071068286895752
			]
		}
	],
	"materials":[
		{
			"doubleSided":true,
			"extensions":{
				"KHR_materials_specular":{
					"specularColorFactor":[
						0.7825480438613255,
						0.7825480438613255,
						0.7825480438613255
					]
				},
				"KHR_materials_ior":{
					"ior":1.4500000476837158
				}
			},
			"name":"FrontColor",
			"pbrMetallicRoughness":{
				"metallicFactor":0
			}
		},
		{
			"alphaMode":"BLEND",
			"doubleSided":true,
			"extensions":{
				"KHR_materials_specular":{
					"specularColorFactor":[
						0.7825480438613255,
						0.7825480438613255,
						0.7825480438613255
					]
				},
				"KHR_materials_ior":{
					"ior":1.4500000476837158
				}
			},
			"name":"_White_",
			"pbrMetallicRoughness":{
				"baseColorFactor":[
					1,
					1,
					1,
					0.5
				],
				"metallicFactor":0
			}
		},
		{
			"doubleSided":true,
			"extensions":{
				"KHR_materials_specular":{
					"specularColorFactor":[
						0.7825480438613255,
						0.7825480438613255,
						0.7825480438613255
					]
				},
				"KHR_materials_ior":{
					"ior":1.4500000476837158
				}
			},
			"name":"White1",
			"pbrMetallicRoughness":{
				"metallicFactor":0
			}
		},
		{
			"doubleSided":true,
			"extensions":{
				"KHR_materials_specular":{
					"specularColorFactor":[
						0.7825480438613255,
						0.7825480438613255,
						0.7825480438613255
					]
				},
				"KHR_materials_ior":{
					"ior":1.4500000476837158
				}
			},
			"name":"_31",
			"pbrMetallicRoughness":{
				"baseColorFactor":[
					1,
					0,
					0,
					1
				],
				"metallicFactor":0
			}
		},
		{
			"doubleSided":true,
			"extensions":{
				"KHR_materials_specular":{
					"specularColorFactor":[
						0.7825480438613255,
						0.7825480438613255,
						0.7825480438613255
					]
				},
				"KHR_materials_ior":{
					"ior":1.4500000476837158
				}
			},
			"name":"RAL9002_Paneel",
			"pbrMetallicRoughness":{
				"baseColorFactor":[
					0.8431370258331299,
					0.8352940082550049,
					0.7960780262947083,
					1
				],
				"metallicFactor":0
			}
		}
	],
	"meshes":[
		{
			"name":"short pencere",
			"primitives":[
				{
					"attributes":{
						"POSITION":0,
						"TEXCOORD_0":1,
						"NORMAL":2
					},
					"indices":3,
					"material":0
				},
				{
					"attributes":{
						"POSITION":4,
						"TEXCOORD_0":5,
						"NORMAL":6
					},
					"indices":7,
					"material":1
				},
				{
					"attributes":{
						"POSITION":8,
						"TEXCOORD_0":9,
						"NORMAL":10
					},
					"indices":11,
					"material":2
				},
				{
					"attributes":{
						"POSITION":12,
						"TEXCOORD_0":13,
						"NORMAL":14
					},
					"indices":15,
					"material":3
				},
				{
					"attributes":{
						"POSITION":16,
						"TEXCOORD_0":17,
						"NORMAL":18
					},
					"indices":19,
					"material":4
				}
			]
		}
	],
	"accessors":[
		{
			"bufferView":0,
			"componentType":5126,
			"count":245,
			"max":[
				143.71299743652344,
				0.8853870034217834,
				-79.6061019897461
			],
			"min":[
				32.86520004272461,
				-5.054840087890625,
				-201.5919952392578
			],
			"type":"VEC3"
		},
		{
			"bufferView":1,
			"componentType":5126,
			"count":245,
			"type":"VEC2"
		},
		{
			"bufferView":2,
			"componentType":5126,
			"count":245,
			"type":"VEC3"
		},
		{
			"bufferView":3,
			"componentType":5123,
			"count":537,
			"type":"SCALAR"
		},
		{
			"bufferView":4,
			"componentType":5126,
			"count":15,
			"max":[
				139.6009979248047,
				-0.20920999348163605,
				-84.5062026977539
			],
			"min":[
				37.0453987121582,
				-1.451799988746643,
				-196.67799377441406
			],
			"type":"VEC3"
		},
		{
			"bufferView":5,
			"componentType":5126,
			"count":15,
			"type":"VEC2"
		},
		{
			"bufferView":6,
			"componentType":5126,
			"count":15,
			"type":"VEC3"
		},
		{
			"bufferView":7,
			"componentType":5123,
			"count":21,
			"type":"SCALAR"
		},
		{
			"bufferView":8,
			"componentType":5126,
			"count":355,
			"max":[
				92.28299713134766,
				-2.0847299098968506,
				-137.48300170898438
			],
			"min":[
				89.94989776611328,
				-7.217700004577637,
				-146.46499633789062
			],
			"type":"VEC3"
		},
		{
			"bufferView":9,
			"componentType":5126,
			"count":355,
			"type":"VEC2"
		},
		{
			"bufferView":10,
			"componentType":5126,
			"count":355,
			"type":"VEC3"
		},
		{
			"bufferView":11,
			"componentType":5123,
			"count":768,
			"type":"SCALAR"
		},
		{
			"bufferView":12,
			"componentType":5126,
			"count":214,
			"max":[
				97.53250122070312,
				-2.940229892730713,
				-144.3179931640625
			],
			"min":[
				90.533203125,
				-7.217700004577637,
				-145.51499938964844
			],
			"type":"VEC3"
		},
		{
			"bufferView":13,
			"componentType":5126,
			"count":214,
			"type":"VEC2"
		},
		{
			"bufferView":14,
			"componentType":5126,
			"count":214,
			"type":"VEC3"
		},
		{
			"bufferView":15,
			"componentType":5123,
			"count":342,
			"type":"SCALAR"
		},
		{
			"bufferView":16,
			"componentType":5126,
			"count":29098,
			"max":[
				183.7449951171875,
				0.005241009872406721,
				1.4221100425731992e-13
			],
			"min":[
				-8.132410049438477,
				-4.329160213470459,
				-229.10000610351562
			],
			"type":"VEC3"
		},
		{
			"bufferView":17,
			"componentType":5126,
			"count":29098,
			"type":"VEC2"
		},
		{
			"bufferView":18,
			"componentType":5126,
			"count":29098,
			"type":"VEC3"
		},
		{
			"bufferView":19,
			"componentType":5123,
			"count":58224,
			"type":"SCALAR"
		}
	],
	"bufferViews":[
		{
			"buffer":0,
			"byteLength":2940,
			"byteOffset":0,
			"target":34962
		},
		{
			"buffer":0,
			"byteLength":1960,
			"byteOffset":2940,
			"target":34962
		},
		{
			"buffer":0,
			"byteLength":2940,
			"byteOffset":4900,
			"target":34962
		},
		{
			"buffer":0,
			"byteLength":1074,
			"byteOffset":7840,
			"target":34963
		},
		{
			"buffer":0,
			"byteLength":180,
			"byteOffset":8916,
			"target":34962
		},
		{
			"buffer":0,
			"byteLength":120,
			"byteOffset":9096,
			"target":34962
		},
		{
			"buffer":0,
			"byteLength":180,
			"byteOffset":9216,
			"target":34962
		},
		{
			"buffer":0,
			"byteLength":42,
			"byteOffset":9396,
			"target":34963
		},
		{
			"buffer":0,
			"byteLength":4260,
			"byteOffset":9440,
			"target":34962
		},
		{
			"buffer":0,
			"byteLength":2840,
			"byteOffset":13700,
			"target":34962
		},
		{
			"buffer":0,
			"byteLength":4260,
			"byteOffset":16540,
			"target":34962
		},
		{
			"buffer":0,
			"byteLength":1536,
			"byteOffset":20800,
			"target":34963
		},
		{
			"buffer":0,
			"byteLength":2568,
			"byteOffset":22336,
			"target":34962
		},
		{
			"buffer":0,
			"byteLength":1712,
			"byteOffset":24904,
			"target":34962
		},
		{
			"buffer":0,
			"byteLength":2568,
			"byteOffset":26616,
			"target":34962
		},
		{
			"buffer":0,
			"byteLength":684,
			"byteOffset":29184,
			"target":34963
		},
		{
			"buffer":0,
			"byteLength":349176,
			"byteOffset":29868,
			"target":34962
		},
		{
			"buffer":0,
			"byteLength":232784,
			"byteOffset":379044,
			"target":34962
		},
		{
			"buffer":0,
			"byteLength":349176,
			"byteOffset":611828,
			"target":34962
		},
		{
			"buffer":0,
			"byteLength":116448,
			"byteOffset":961004,
			"target":34963
		}
	],
	"buffers":[
		{
			"byteLength":1077452,
			"uri":"data:application/octet-stream;base64,"
		}
	]
}
